<?xml version="1.0" encoding="UTF-8" standalone="no"?>
<!-- Created with Inkscape (http://www.inkscape.org/) -->
<svg
   xmlns:dc="http://purl.org/dc/elements/1.1/"
   xmlns:cc="http://web.resource.org/cc/"
   xmlns:rdf="http://www.w3.org/1999/02/22-rdf-syntax-ns#"
   xmlns:svg="http://www.w3.org/2000/svg"
   xmlns="http://www.w3.org/2000/svg"
   xmlns:sodipodi="http://inkscape.sourceforge.net/DTD/sodipodi-0.dtd"
   xmlns:inkscape="http://www.inkscape.org/namespaces/inkscape"
   id="svg1337"
   sodipodi:version="0.32"
   inkscape:version="0.43"
   width="1600"
   height="1200"
   sodipodi:docbase="/home/icehand/Bilder/Eigene/Inkscape"
   sodipodi:docname="the_cat_returns-haru-umbrella.svg"
   version="1.0"
   inkscape:export-filename="/home/icehand/Bilder/Eigene/Inkscape/the_cat_returns-haru-umbrella-.png"
   inkscape:export-xdpi="90"
   inkscape:export-ydpi="90">
  <metadata
     id="metadata1342">
    <rdf:RDF>
      <cc:Work
         rdf:about="">
        <dc:format>image/svg+xml</dc:format>
        <dc:type
           rdf:resource="http://purl.org/dc/dcmitype/StillImage" />
      </cc:Work>
    </rdf:RDF>
  </metadata>
  <defs
     id="defs1340" />
  <sodipodi:namedview
     inkscape:window-height="718"
     inkscape:window-width="1024"
     inkscape:pageshadow="2"
     inkscape:pageopacity="0.0"
     borderopacity="1.0"
     bordercolor="#666666"
     pagecolor="#ffffff"
     id="base"
     inkscape:zoom="2.6390158"
     inkscape:cx="603.23067"
     inkscape:cy="273.18633"
     inkscape:window-x="0"
     inkscape:window-y="25"
     inkscape:current-layer="svg1337"
     showguides="true"
     inkscape:guide-bbox="true" />
  <path
     style="fill:#daab39;fill-opacity:1;fill-rule:evenodd;stroke:#000000;stroke-width:1.5;stroke-linecap:butt;stroke-linejoin:miter;stroke-opacity:1;stroke-miterlimit:4;stroke-dasharray:none"
     d="M 1176.9366,851.80726 C 1176.9366,851.80726 1211.7586,959.75554 1272.6971,876.18268 C 1316.3151,816.3637 1251.8039,1015.4708 1166.49,877.92378 C 1081.176,740.37679 1175.1955,853.54837 1176.9366,851.80726 z "
     id="path1769"
     sodipodi:nodetypes="cscc" />
  <g
     id="g1466"
     transform="matrix(0.999752,-2.227263e-2,2.227263e-2,0.999752,84.52718,12.42292)">
    <path
       style="fill:#515151;fill-opacity:1;fill-rule:evenodd;stroke:#000000;stroke-width:1.49999821;stroke-linecap:butt;stroke-linejoin:miter;stroke-miterlimit:4;stroke-dasharray:none;stroke-opacity:1"
       d="M 1143.7252,434.17546 C 1146.4172,433.13299 1147.9032,425.55928 1147.9032,425.55928 L 1145.5172,423.73814 C 1145.5172,423.73814 1138.5044,427.71859 1138.3634,430.52754 C 1138.2225,433.33649 1141.0332,435.21786 1143.7252,434.17546 z "
       id="path34730"
       sodipodi:nodetypes="cccss" />
    <path
       sodipodi:nodetypes="ccccccccc"
       id="path34724"
       d="M 1229.0128,647.67862 C 1229.0128,647.67862 1203.756,599.31386 1159.6528,579.2439 C 1134.8097,543.4107 1118.1773,528.75367 1075.0252,510.53022 C 1044.9387,477.19109 1024.3629,461.74049 980.33477,451.25796 C 961.68175,425.83141 905.79211,410.582 905.79211,410.582 L 946.55673,399.97 L 1217.2587,549.82388 L 1223.1856,611.95294 L 1229.0128,647.67862 z "
       style="fill:#343434;fill-opacity:1;fill-rule:evenodd;stroke:#000000;stroke-width:1.49999833;stroke-linecap:butt;stroke-linejoin:miter;stroke-miterlimit:4;stroke-dasharray:none;stroke-opacity:1" />
    <rect
       style="fill:#a1a1a1;fill-opacity:1;fill-rule:evenodd;stroke:#000000;stroke-width:1.50000954;stroke-linecap:round;stroke-linejoin:miter;stroke-miterlimit:4;stroke-dasharray:none;stroke-dashoffset:0;stroke-opacity:1"
       id="rect34728"
       width="6.2736287"
       height="282.2381"
       x="-1182.0459"
       y="-299.77176"
       transform="matrix(-0.817135,-0.576447,-0.580228,0.814454,0,0)" />
    <path
       style="fill:#5c5c5c;fill-opacity:1;fill-rule:evenodd;stroke:#000000;stroke-width:1.49999833;stroke-linecap:butt;stroke-linejoin:miter;stroke-miterlimit:4;stroke-dasharray:none;stroke-opacity:1"
       d="M 1230.1811,651.01417 C 1257.2438,460.15388 1082.0405,329.672 903.9224,411.11201 C 932.51016,412.39258 973.83087,419.35711 997.78738,450.65555 C 1035.3647,456.76339 1089.1139,481.86883 1099.4176,510.76349 C 1135.0016,524.40543 1168.1905,547.37474 1175.2949,577.86986 C 1205.4697,592.78417 1220.8735,621.79185 1230.1811,651.01417 z "
       id="path34736"
       sodipodi:nodetypes="cccccc" />
    <path
       sodipodi:nodetypes="cc"
       id="path35651"
       d="M 997.99638,450.37684 C 997.99638,450.37684 1059.084,396.21809 1142.213,427.88628"
       style="fill:none;fill-opacity:0.75;fill-rule:evenodd;stroke:#000000;stroke-width:1.5;stroke-linecap:butt;stroke-linejoin:miter;stroke-miterlimit:4;stroke-dasharray:none;stroke-opacity:1" />
    <path
       sodipodi:nodetypes="cc"
       id="path36526"
       d="M 1100.4516,510.70941 C 1100.4516,510.70941 1143.2817,451.93994 1144.6013,429.50831"
       style="fill:none;fill-opacity:0.75;fill-rule:evenodd;stroke:#000000;stroke-width:1.5;stroke-linecap:butt;stroke-linejoin:miter;stroke-miterlimit:4;stroke-dasharray:none;stroke-opacity:1" />
    <path
       sodipodi:nodetypes="cc"
       id="path37401"
       d="M 1175.6635,579.32383 C 1175.6635,579.32383 1203.1804,502.41027 1146.4416,431.15684"
       style="fill:none;fill-opacity:0.75;fill-rule:evenodd;stroke:#000000;stroke-width:1.5;stroke-linecap:butt;stroke-linejoin:miter;stroke-miterlimit:4;stroke-dasharray:none;stroke-opacity:1" />
  </g>
  <path
     sodipodi:type="arc"
     style="opacity:0.2;fill:#000000;fill-opacity:1;fill-rule:evenodd;stroke:none;stroke-width:1.5;stroke-linecap:round;stroke-linejoin:round;stroke-miterlimit:4;stroke-dasharray:none;stroke-dashoffset:0;stroke-opacity:1"
     id="path38277"
     sodipodi:cx="1083.2876"
     sodipodi:cy="1113.0259"
     sodipodi:rx="84.852814"
     sodipodi:ry="9.1923885"
     d="M 1168.1404 1113.0259 A 84.852814 9.1923885 0 1 1  998.43478,1113.0259 A 84.852814 9.1923885 0 1 1  1168.1404 1113.0259 z"
     transform="matrix(0.761459,0,0,1,349.1423,-5.41421)" />
  <g
     id="g34711"
     transform="matrix(0.999365,-3.563056e-2,3.563056e-2,0.999365,85.6547,15.05128)">
    <path
       style="fill:#cccccc;fill-opacity:1;fill-rule:evenodd;stroke:#000000;stroke-width:1.49999964;stroke-linecap:butt;stroke-linejoin:miter;stroke-miterlimit:4;stroke-dasharray:none;stroke-opacity:1"
       d="M 151.85662,503.4085 C 151.85662,503.4085 207.04037,447.11347 254.18815,446.72807 C 264.37137,422.24145 349.49218,368.72104 412.52983,367.98126 C 448.42137,321.26194 515.12178,305.14985 564.82377,308.41332 C 609.56295,268.7765 683.51504,252.92453 739.35236,260.45616 C 768.52653,234.26434 834.3214,214.4504 874.71089,232.23753 C 902.04477,214.14056 930.22536,222.06448 930.22536,222.06448 L 844.85709,161.80264 L 235.03659,277.86284 L 168.96188,404.62665 L 151.85662,503.4085 z "
       id="path15568"
       sodipodi:nodetypes="ccccccccccc" />
    <path
       sodipodi:nodetypes="cccc"
       id="path27802"
       d="M 567.58667,307.37661 C 567.58667,307.37661 542.46005,203.15206 456.41368,95.642825 C 631.5274,87.764601 738.96447,260.58029 738.96447,260.58029 C 738.96447,260.58029 629.45945,250.3373 567.58667,307.37661 z "
       style="fill:#425262;fill-opacity:1;fill-rule:evenodd;stroke:#000000;stroke-width:1.49999964;stroke-linecap:butt;stroke-linejoin:miter;stroke-miterlimit:4;stroke-dasharray:none;stroke-opacity:1" />
    <rect
       transform="matrix(0.941847,-0.336041,0.336041,0.941847,0,0)"
       y="217.86516"
       x="384.53568"
       height="703.2536"
       width="12.531604"
       id="rect12941"
       style="opacity:1;fill:#a1a1a1;fill-opacity:1;fill-rule:evenodd;stroke:#000000;stroke-width:1.50000048;stroke-linecap:round;stroke-linejoin:miter;stroke-miterlimit:4;stroke-dasharray:none;stroke-dashoffset:0;stroke-opacity:1" />
    <path
       sodipodi:nodetypes="cccss"
       id="path14691"
       d="M 436.53031,89.208343 C 431.55472,84.559544 431.81625,65.958647 431.81625,65.958647 L 437.40647,63.789398 C 437.40647,63.789398 449.82469,78.797738 448.90123,85.352052 C 447.97777,91.906365 441.50609,93.857059 436.53031,89.208343 z "
       style="fill:#515151;fill-opacity:1;fill-rule:evenodd;stroke:#000000;stroke-width:1.4999994;stroke-linecap:butt;stroke-linejoin:miter;stroke-miterlimit:4;stroke-dasharray:none;stroke-opacity:1" />
    <path
       style="fill:#425262;fill-opacity:1;fill-rule:evenodd;stroke:#000000;stroke-width:1.49999964;stroke-linecap:butt;stroke-linejoin:miter;stroke-miterlimit:4;stroke-dasharray:none;stroke-opacity:1"
       d="M 877.47198,233.64615 C 877.47198,233.64615 676.25321,110.89426 536.63448,97.512092 C 636.48969,84.936333 911.55548,193.52096 931.53821,221.66152 C 888.06028,218.17312 880.67241,234.76157 877.47198,233.64615 z "
       id="path28677"
       sodipodi:nodetypes="cccc" />
    <path
       sodipodi:nodetypes="cccc"
       id="path26927"
       d="M 253.53319,445.71344 C 253.53319,445.71344 303.06923,168.69159 424.9412,113.54046 C 376.57262,190.97559 411.7082,367.54849 411.7082,367.54849 C 411.7082,367.54849 306.86173,386.41415 253.53319,445.71344 z "
       style="fill:#425262;fill-opacity:1;fill-rule:evenodd;stroke:#000000;stroke-width:1.49999964;stroke-linecap:butt;stroke-linejoin:miter;stroke-miterlimit:4;stroke-dasharray:none;stroke-opacity:1" />
    <path
       sodipodi:nodetypes="cccccc"
       id="path2452"
       d="M 150.23193,506.16795 C 164.05562,57.195361 563.91427,-78.897283 933.7291,222.35043 C 891.32194,192.90204 767.78166,181.58898 706.06076,233.18642 C 627.72526,215.62976 496.02853,238.81919 462.84826,296.37235 C 393.05886,285.02438 296.53536,322.44331 278.33283,401.30826 C 211.12637,410.14474 181.54601,447.02763 150.23193,506.16795 z "
       style="fill:#627a91;fill-opacity:1;fill-rule:evenodd;stroke:#000000;stroke-width:1.49999964;stroke-linecap:butt;stroke-linejoin:miter;stroke-miterlimit:4;stroke-dasharray:none;stroke-opacity:1" />
    <path
       sodipodi:nodetypes="cccc"
       id="path3327"
       d="M 277.2321,401.61819 C 277.2321,401.61819 234.22217,202.70869 436.16563,74.071033 C 432.94568,180.38042 462.09258,296.03004 462.09258,296.03004 C 462.09258,296.03004 320.29421,303.6819 277.2321,401.61819 z "
       style="fill:#ffffff;fill-opacity:1;fill-rule:evenodd;stroke:#000000;stroke-width:1.49999964;stroke-linecap:butt;stroke-linejoin:miter;stroke-miterlimit:4;stroke-dasharray:none;stroke-opacity:1" />
    <path
       sodipodi:nodetypes="cccc"
       id="path8571"
       d="M 708.19305,234.32695 C 708.19305,234.32695 632.85914,75.773829 440.24651,72.812289 C 478.33624,52.208841 721.5905,-4.7414298 931.86655,220.28258 C 769.32898,166.68477 710.53144,236.90718 708.19305,234.32695 z "
       style="fill:#ffffff;fill-opacity:1;fill-rule:evenodd;stroke:#000000;stroke-width:1.49999964;stroke-linecap:butt;stroke-linejoin:miter;stroke-miterlimit:4;stroke-dasharray:none;stroke-opacity:1" />
  </g>
  <path
     style="fill:#daab39;fill-opacity:1;fill-rule:evenodd;stroke:#000000;stroke-width:1.5;stroke-linecap:butt;stroke-linejoin:miter;stroke-miterlimit:4;stroke-dasharray:none;stroke-opacity:1"
     d="M 1069.5,692.25 L 1077,700 L 1088.25,686.5 L 1079.75,679.25 L 1069.5,692.25 z "
     id="path32046" />
  <path
     sodipodi:nodetypes="csscs"
     id="path28542"
     d="M 1137.3949,766.02403 C 1147.8596,775.87319 1147.9659,867.35311 1160.7866,903.91221 C 1166.3921,919.89671 1180.9788,1024.1937 1182.9473,1012.2529 C 1189.7627,970.91181 1188.4874,879.28932 1170.0202,767.25518 C 1142.9351,641.06288 1126.9302,756.17488 1137.3949,766.02403 z "
     style="opacity:1;fill:#e5dec5;fill-opacity:1;fill-rule:evenodd;stroke:#000000;stroke-width:1.5;stroke-linecap:butt;stroke-linejoin:miter;stroke-miterlimit:4;stroke-dasharray:none;stroke-opacity:1" />
  <path
     style="fill:#ffffff;fill-opacity:1;fill-rule:evenodd;stroke:#000000;stroke-width:1.5;stroke-linecap:butt;stroke-linejoin:miter;stroke-miterlimit:4;stroke-dasharray:none;stroke-opacity:1"
     d="M 1094.6566,691.83286 L 1086.8784,681.93337 C 1086.8784,681.93337 1072.0292,703.85368 1068.4937,704.56079 C 1064.9581,705.26789 1084.05,717.99582 1084.05,717.99582 L 1094.6566,691.83286 z "
     id="path23290"
     sodipodi:nodetypes="ccscc" />
  <path
     style="fill:#e5dec5;fill-opacity:1;fill-rule:evenodd;stroke:#000000;stroke-width:1.5;stroke-linecap:butt;stroke-linejoin:miter;stroke-miterlimit:4;stroke-dasharray:none;stroke-opacity:1"
     d="M 1102.4348,698.90393 L 1093.2424,688.29734 C 1093.2424,688.29734 1088.9997,701.02525 1074.8576,715.16739 C 1091.1211,741.33033 1106.6774,747.6943 1106.6774,747.6943 L 1102.4348,698.90393 z "
     id="path23288"
     sodipodi:nodetypes="ccccc" />
  <path
     style="fill:#ffffff;fill-opacity:1;fill-rule:evenodd;stroke:#000000;stroke-width:1.5;stroke-linecap:butt;stroke-linejoin:miter;stroke-miterlimit:4;stroke-dasharray:none;stroke-opacity:1"
     d="M 1122.5645,631.48458 C 1122.5645,631.48458 1112.445,629.42035 1109.9746,631.89071 C 1108.7562,633.10909 1117.2848,652.19702 1117.2848,652.19702 L 1122.5645,631.48458 z "
     id="path13654"
     sodipodi:nodetypes="cscc" />
  <path
     style="fill:none;fill-opacity:0.75;fill-rule:evenodd;stroke:#000000;stroke-width:1.5;stroke-linecap:round;stroke-linejoin:miter;stroke-miterlimit:4;stroke-dasharray:none;stroke-opacity:1"
     d="M 1102.8562,583.86951 C 1102.8562,583.86951 1090.7691,580.52075 1085.981,580.52075"
     id="path11017"
     sodipodi:nodetypes="cc" />
  <path
     style="fill:none;fill-opacity:0.75;fill-rule:evenodd;stroke:#000000;stroke-width:1.5;stroke-linecap:round;stroke-linejoin:miter;stroke-miterlimit:4;stroke-dasharray:none;stroke-opacity:1"
     d="M 1101.6509,587.45232 C 1101.6509,587.45232 1092.5758,586.27994 1084.2399,593.91367"
     id="path11892"
     sodipodi:nodetypes="cc" />
  <path
     style="fill:#daab39;fill-opacity:1;fill-rule:evenodd;stroke:#000000;stroke-width:1.5;stroke-linecap:butt;stroke-linejoin:miter;stroke-miterlimit:4;stroke-dasharray:none;stroke-opacity:1"
     d="M 1122.0141,633.22988 C 1122.0141,633.22988 1115.6136,618.98082 1112.553,612.7775 C 1109.9276,611.7975 1104.4313,610.61098 1102.8812,608.60818 C 1100.3228,605.30273 1098.0247,593.86911 1101.3235,592.5496 C 1098.5284,587.31263 1100.345,584.42574 1100.8882,580.44956 C 1101.548,575.62049 1114.3079,572.757 1120.0074,572.09723 C 1123.9939,571.63576 1126.4242,562.77528 1154.3283,564.61546 C 1163.4961,557.451 1171.2221,548.24245 1173.672,548.13529 C 1176.1231,551.4722 1174.0799,561.17431 1174.7807,565.27522 C 1179.3989,561.97645 1192.8185,551.85567 1192.8185,555.81419 C 1192.8185,559.77271 1191.7098,579.36821 1186.6562,588.36661 C 1182.444,595.86684 1190.1111,604.91519 1164.8844,629.27135 C 1145.4186,648.06544 1123.3336,634.54938 1122.0141,633.22988 z "
     id="path1532"
     sodipodi:nodetypes="ccscsscccsssc" />
  <path
     style="fill:#eed4a6;fill-opacity:1;fill-rule:evenodd;stroke:#000000;stroke-width:1.5;stroke-linecap:butt;stroke-linejoin:miter;stroke-miterlimit:4;stroke-dasharray:none;stroke-opacity:1"
     d="M 832.5904,793.12281 C 832.5904,793.12281 819.59436,806.11885 788.32264,808.14948 C 756.70878,810.20234 755.42642,766.31848 755.42642,766.31848 L 787.91652,748.0428 L 830.96589,769.16137 L 836.65166,784.18804 L 832.5904,793.12281 z "
     id="path11146"
     sodipodi:nodetypes="csccccc" />
  <path
     style="opacity:1;fill:#474747;fill-opacity:1;fill-rule:evenodd;stroke:#000000;stroke-width:1.49999964;stroke-linecap:butt;stroke-linejoin:miter;stroke-miterlimit:4;stroke-dasharray:none;stroke-opacity:1"
     d="M 791.81887,756.5239 L 810.28361,804.39016 C 836.52945,872.4274 887.53892,831.74635 859.42637,759.74535 C 853.48362,744.52497 836.70713,751.30706 842.22121,763.79878 C 853.93579,790.33726 848.90093,843.24361 831.14997,800.03947 L 803.27145,732.18585 C 801.20102,726.79832 790.27589,753.52606 791.81887,756.5239 z "
     id="path29552"
     sodipodi:nodetypes="csssscc" />
  <path
     style="opacity:1;fill:#eed4a6;fill-opacity:1;fill-rule:evenodd;stroke:#000000;stroke-width:1.5;stroke-linecap:butt;stroke-linejoin:miter;stroke-miterlimit:4;stroke-dasharray:none;stroke-opacity:1"
     d="M 832.22192,775.56418 C 832.22192,775.56418 840.53215,776.79533 842.99444,782.02769 C 845.45672,787.26006 834.992,794.64692 832.52971,796.18585 C 830.06742,797.72478 823.60391,801.41822 821.44941,797.417 C 819.29491,793.41578 826.98956,786.02891 830.06742,784.79777"
     id="path9382" />
  <path
     style="opacity:1;fill:#eed4a6;fill-opacity:1;fill-rule:evenodd;stroke:#000000;stroke-width:1.5;stroke-linecap:butt;stroke-linejoin:miter;stroke-miterlimit:4;stroke-dasharray:none;stroke-opacity:1"
     d="M 829.45185,760.79045 C 829.45185,760.79045 836.1188,760.79563 838.68543,765.71502 C 842.37886,772.79411 834.992,775.2564 829.45185,778.64205 C 823.9117,782.02769 816.21704,785.41334 813.75476,782.95105 C 811.29247,780.48876 815.29369,771.56296 815.29369,771.56296 L 828.52849,758.63595 L 829.45185,760.79045 z "
     id="path8507"
     sodipodi:nodetypes="csssccc" />
  <path
     style="opacity:1;fill:#eed4a6;fill-opacity:1;fill-rule:evenodd;stroke:#000000;stroke-width:1.5;stroke-linecap:butt;stroke-linejoin:miter;stroke-miterlimit:4;stroke-dasharray:none;stroke-opacity:1"
     d="M 825.22021,747.5171 C 825.22021,747.5171 834.15882,746.87965 835.84711,750.87182 C 838.12174,756.25044 825.59946,764.26586 822.55575,767.28478 C 819.86941,769.94924 814.33833,778.42164 810.42085,774.06889 C 806.50337,769.71614 812.59723,757.52843 816.07943,756.2226 C 819.56163,754.91678 825.65548,748.38765 825.22021,747.5171 z "
     id="path7632"
     sodipodi:nodetypes="cssssc" />
  <g
     style="opacity:1"
     id="g6753"
     transform="translate(100.9221,-1.53771)">
    <path
       sodipodi:nodetypes="csccsscscc"
       id="path5001"
       d="M 652.47765,769.51275 C 652.47765,769.51275 669.88866,749.49008 672.93559,746.44316 C 675.98251,743.39623 696.87573,736.8671 696.87573,736.8671 L 708.62816,734.25545 C 708.62816,734.25545 716.02784,730.77325 719.07477,731.20852 C 723.98779,731.91037 727.78027,738.17293 727.78027,739.91403 C 727.78027,741.65513 725.16862,750.79591 725.16862,750.79591 C 725.16862,750.79591 723.86279,761.67779 722.99224,763.85417 C 722.12169,766.03054 710.36926,764.72472 711.23981,751.23118 C 703.40485,756.45449 696.87573,756.88976 696.87573,756.88976"
       style="fill:#eed4a6;fill-opacity:1;fill-rule:evenodd;stroke:#000000;stroke-width:1.5;stroke-linecap:butt;stroke-linejoin:miter;stroke-miterlimit:4;stroke-dasharray:none;stroke-opacity:1" />
    <path
       id="path5876"
       d="M 711.23981,750.79591 C 711.23981,750.79591 711.23981,746.44316 712.11036,742.0904"
       style="fill:none;fill-opacity:0.75;fill-rule:evenodd;stroke:#000000;stroke-width:1.5;stroke-linecap:butt;stroke-linejoin:miter;stroke-miterlimit:4;stroke-dasharray:none;stroke-opacity:1" />
  </g>
  <path
     sodipodi:nodetypes="cccc"
     id="path2268"
     d="M 811.76747,753.06437 L 798.89503,718.19065 C 786.04215,717.47986 777.35942,725.40077 777.35942,725.40077 L 793.7004,762.03725"
     style="opacity:1;fill:#474747;fill-opacity:1;fill-rule:evenodd;stroke:#000000;stroke-width:1.49999964;stroke-linecap:butt;stroke-linejoin:miter;stroke-miterlimit:4;stroke-dasharray:none;stroke-opacity:1" />
  <path
     style="opacity:1;fill:#eed4a6;fill-opacity:1;fill-rule:evenodd;stroke:#000000;stroke-width:1.5;stroke-linecap:butt;stroke-linejoin:miter;stroke-miterlimit:4;stroke-dasharray:none;stroke-opacity:1"
     d="M 764.28167,762.31646 C 764.28167,762.31646 774.68957,751.2234 781.25741,749.2582 C 783.79396,748.49922 786.85272,742.02876 793.88038,736.19994 C 800.09162,731.04828 800.40952,724.01223 804.76227,723.57696 C 809.11502,723.14168 820.43218,736.19994 792.57456,764.05756 C 795.18621,773.19834 790.39819,787.12715 790.39819,787.12715"
     id="path6757"
     sodipodi:nodetypes="cssscc" />
  <path
     sodipodi:type="arc"
     style="opacity:0.2;fill:#000000;fill-opacity:1;fill-rule:evenodd;stroke:none;stroke-width:4;stroke-linecap:round;stroke-linejoin:miter;stroke-miterlimit:4;stroke-dasharray:none;stroke-dashoffset:0;stroke-opacity:1"
     id="path1577"
     sodipodi:cx="322.97427"
     sodipodi:cy="1118.1682"
     sodipodi:rx="140.15865"
     sodipodi:ry="31.339821"
     d="M 463.13292 1118.1682 A 140.15865 31.339821 0 1 1  182.81563,1118.1682 A 140.15865 31.339821 0 1 1  463.13292 1118.1682 z"
     transform="matrix(1.17781,0,0,0.472222,52.99013,573.0861)" />
  <path
     style="opacity:1;fill:#ffffff;fill-opacity:1;fill-rule:evenodd;stroke:#000000;stroke-width:1.5;stroke-linecap:butt;stroke-linejoin:miter;stroke-miterlimit:4;stroke-dasharray:none;stroke-opacity:1"
     d="M 521.78935,988.87804 C 521.78935,988.87804 520.06631,1002.6624 522.3637,1011.852 C 524.85557,1021.8195 490.20015,1033.1029 490.20015,1033.1029 L 486.1797,983.13455 L 521.78935,988.87804 z "
     id="path19712"
     sodipodi:nodetypes="csccc" />
  <path
     style="opacity:1;fill:#544937;fill-opacity:1;fill-rule:evenodd;stroke:#000000;stroke-width:1.5;stroke-linecap:butt;stroke-linejoin:miter;stroke-miterlimit:4;stroke-dasharray:none;stroke-opacity:1"
     d="M 499.21726,1036.1046 C 503.88772,1016.6106 534.14412,992.243 526.83384,1023.1086 C 535.35969,1029.3477 538.50997,1048.3899 539.01763,1051.1313 C 550.4907,1057.9339 577.4368,1066.5496 583.69151,1066.5641 C 593.36891,1066.5852 595.06305,1092.15 595.06305,1092.15 C 595.06305,1092.15 597.99143,1100.6448 595.06305,1103.1155 C 587.97485,1109.0957 528.05222,1104.3338 528.05222,1104.3338 L 493.5315,1049.1007 C 493.5315,1049.1007 496.98357,1038.1353 499.21726,1036.1046 z "
     id="path28456"
     sodipodi:nodetypes="cccscsccc" />
  <path
     style="opacity:1;fill:#ffffff;fill-opacity:1;fill-rule:evenodd;stroke:#000000;stroke-width:1.5;stroke-linecap:butt;stroke-linejoin:miter;stroke-miterlimit:4;stroke-dasharray:none;stroke-opacity:1"
     d="M 333.1026,668.49834 C 333.1026,668.49834 330.63306,687.10108 326.73864,696.78261 C 323.98359,703.63168 337.34524,718.70292 337.34524,718.70292 L 415.12698,720.11713 L 333.1026,668.49834 z "
     id="path14466"
     sodipodi:nodetypes="csccc" />
  <path
     style="opacity:1;fill:#eed4a6;fill-opacity:1;fill-rule:evenodd;stroke:#000000;stroke-width:1.5;stroke-linecap:butt;stroke-linejoin:miter;stroke-miterlimit:4;stroke-dasharray:none;stroke-opacity:1"
     d="M 814.54654,825.51517 C 814.54654,825.51517 831.02339,835.19262 825.38979,891.17527 C 823.91903,905.79071 798.15831,927.90575 794.08436,930.85747 C 780.84412,940.45047 742.55,942.9832 743.30786,942.22535 C 744.06571,941.46749 781.95863,826.27303 781.95863,826.27303 L 814.54654,825.51517 z "
     id="path5724"
     sodipodi:nodetypes="cssscc" />
  <path
     style="opacity:1;fill:#eed4a6;fill-opacity:1;fill-rule:evenodd;stroke:#000000;stroke-width:1.5;stroke-linecap:butt;stroke-linejoin:miter;stroke-miterlimit:4;stroke-dasharray:none;stroke-opacity:1"
     d="M 796.42084,870.36602 C 796.42084,870.36602 794.2773,901.98334 787.31077,916.98817 C 780.34424,931.993 748.19104,945.39017 743.90394,946.99783 C 739.61685,948.60549 711.75074,949.34738 636.7266,969.17519 C 561.70246,989.003 629.22418,765.33223 629.22418,765.33223 C 629.22418,765.33223 772.30594,746.57619 796.42084,870.36602 z "
     id="path7472"
     sodipodi:nodetypes="cssscc" />
  <path
     style="opacity:1;fill:#eed4a6;fill-opacity:1;fill-rule:evenodd;stroke:#000000;stroke-width:1.5;stroke-linecap:butt;stroke-linejoin:miter;stroke-miterlimit:4;stroke-dasharray:none;stroke-opacity:1"
     d="M 611.88717,671.16274 C 611.88717,671.16274 586.15677,703.49069 573.62144,724.60281 C 561.08612,745.71494 493.79121,720.64429 493.79121,720.64429 L 559.76661,635.53603 L 611.88717,671.16274 z "
     id="path6582" />
  <path
     style="opacity:0.2;fill:#000000;fill-opacity:1;fill-rule:evenodd;stroke:none;stroke-width:1px;stroke-linecap:butt;stroke-linejoin:miter;stroke-opacity:1"
     d="M 608.49033,673.7645 L 600.99033,685.2645 C 600.99033,685.2645 570.49033,681.7645 556.49033,669.2645 C 544.34735,658.42255 569.49033,654.7645 569.49033,654.7645 L 608.49033,673.7645 z "
     id="path15341"
     sodipodi:nodetypes="ccscc" />
  <path
     style="opacity:1;fill:#ffffff;fill-opacity:1;fill-rule:evenodd;stroke:#000000;stroke-width:1.5;stroke-linecap:butt;stroke-linejoin:miter;stroke-miterlimit:4;stroke-dasharray:none;stroke-opacity:1"
     d="M 565.04464,666.54447 C 565.04464,666.54447 588.13603,675.78102 619.14447,675.78102 C 650.1529,675.78102 648.17364,598.58981 648.17364,598.58981 L 569.00316,640.81406 L 565.04464,666.54447 z "
     id="path4834"
     sodipodi:nodetypes="csccc" />
  <path
     style="opacity:1;fill:#ffffff;fill-opacity:1;fill-rule:evenodd;stroke:#000000;stroke-width:1.5;stroke-linecap:butt;stroke-linejoin:miter;stroke-miterlimit:4;stroke-dasharray:none;stroke-opacity:1"
     d="M 603.31037,634.87628 C 603.31037,634.87628 634.31881,617.06292 641.5761,609.80563 C 648.83339,602.54833 670.06131,595.96803 688.41863,572.85941 C 695.42852,564.0352 717.11793,519.08946 717.11793,519.08946 L 621.78348,574.83866 L 603.31037,634.87628 z "
     id="path2213"
     sodipodi:nodetypes="cssccc" />
  <path
     style="opacity:1;fill:#eed4a6;fill-opacity:1;fill-rule:evenodd;stroke:#000000;stroke-width:1.5;stroke-linecap:round;stroke-linejoin:miter;stroke-miterlimit:4;stroke-dasharray:none;stroke-opacity:1"
     d="M 688.06051,543.16883 C 688.06051,543.16883 706.75345,534.86674 725.06975,537.7408 C 728.23729,538.23783 759.87177,579.25477 779.67713,585.43979 C 790.61963,588.85703 798.10131,569.81547 803.03587,568.82856 C 807.97044,567.84165 822.69312,565.3123 816.3592,557.97252 C 814.97665,556.37041 822.28069,557.47907 826.22834,556.49215 C 830.17599,555.50524 832.64327,545.63611 835.11055,544.15574 C 843.68119,541.81981 848.62479,544.18522 852.38159,541.68846 C 855.47319,539.63377 850.81929,502.78074 881.49549,473.098 C 904.07129,451.25335 906.16829,412.8963 906.16829,412.8963 L 887.41699,364.53756 L 708.78568,368.48522 L 697.92964,443.49061 L 678.19138,455.33356 L 688.06051,543.16883 z "
     id="path1346"
     sodipodi:nodetypes="cssssscsscccccc" />
  <path
     style="opacity:0.2;fill:#000000;fill-opacity:1;fill-rule:evenodd;stroke:none;stroke-width:1px;stroke-linecap:butt;stroke-linejoin:miter;stroke-opacity:1"
     d="M 755.75097,393.72138 C 755.75097,393.72138 759.43281,399.31351 765.86345,400.92117 C 772.29409,402.52883 767.23785,385.21657 767.23785,385.21657 C 767.23785,385.21657 757.35863,388.8984 755.75097,393.72138 z "
     id="path42417"
     sodipodi:nodetypes="cscc" />
  <path
     style="opacity:1;fill:none;fill-opacity:0.75;fill-rule:evenodd;stroke:#000000;stroke-width:1.5;stroke-linecap:round;stroke-linejoin:miter;stroke-miterlimit:4;stroke-dasharray:none;stroke-opacity:1"
     d="M 768.61226,384.84935 C 768.61226,384.84935 762.00724,385.99805 753.10483,396.33634"
     id="path11888" />
  <path
     style="opacity:1;fill:#4d2b00;fill-opacity:1;fill-rule:evenodd;stroke:none;stroke-width:1px;stroke-linecap:butt;stroke-linejoin:round;stroke-opacity:1"
     d="M 878.92209,458.00939 C 879.70479,461.31062 880.87659,450.16538 877.37389,445.92674 C 874.62379,442.5988 865.19009,441.28197 862.75329,440.87584 C 860.31659,440.46972 875.35619,442.97081 878.92209,458.00939 z "
     id="path2190"
     sodipodi:nodetypes="csss" />
  <path
     style="opacity:1;fill:#4d2b00;fill-opacity:1;fill-rule:evenodd;stroke:#000000;stroke-width:1.5;stroke-linecap:butt;stroke-linejoin:miter;stroke-miterlimit:4;stroke-dasharray:none;stroke-opacity:1"
     d="M 733.85995,275.61286 C 733.85995,275.61286 721.69909,294.60901 731.10945,300.47222 C 738.93443,305.34764 715.7356,322.51763 710.2356,325.26763 C 696.49296,388.07145 669.26504,399.02247 669.26504,399.02247 C 669.26504,399.02247 675.40944,378.07976 672.03812,366.71212 C 670.0657,388.12764 651.67821,401.87812 646.21009,406.3496 C 655.05992,391.34554 652.75569,382.35825 650.16248,356.75164 C 647.92867,356.50569 642.5723,362.23457 641.00381,368.47415 C 638.55947,361.73998 638.13237,353.09091 645.43872,342.50105 C 630.35684,338.92612 611.27366,377.06485 611.27366,377.06485 C 611.27366,377.06485 607.26021,318.49132 652.69313,304.62505 C 638.4726,294.94195 603.54909,313.58056 603.54909,313.58056 C 603.54909,313.58056 660.48429,239.44806 718.78939,287.15517 C 721.75738,281.73436 730.65695,276.84729 733.85995,275.61286 z "
     id="path37175"
     sodipodi:nodetypes="cscccccccccccc" />
  <path
     style="opacity:1;fill:#d4be51;fill-opacity:1;fill-rule:evenodd;stroke:#000000;stroke-width:1.5;stroke-linecap:butt;stroke-linejoin:miter;stroke-miterlimit:4;stroke-dasharray:none;stroke-opacity:1"
     d="M 740.16933,306.9628 C 740.16933,306.9628 732.54825,297.50855 727.44141,301.30595 C 699.86425,321.81205 714.71349,328.176 714.71349,328.176 L 740.16933,306.9628 z "
     id="path38050"
     sodipodi:nodetypes="cscc" />
  <path
     style="opacity:1;fill:#4d2b00;fill-opacity:1;fill-rule:evenodd;stroke:#000000;stroke-width:1.5;stroke-linecap:round;stroke-linejoin:miter;stroke-miterlimit:4;stroke-dasharray:none;stroke-opacity:1"
     d="M 766.17597,464.04948 C 766.17597,464.04948 779.81742,428.43014 786.63814,425.39871 C 791.1853,442.82944 785.12243,504.21596 785.12243,504.21596 C 785.12243,504.21596 811.64748,472.38592 819.98391,435.25087 C 823.01535,454.95518 813.92104,495.12166 813.92104,495.12166 C 813.92104,495.12166 831.8719,468.52047 839.89449,448.45761 C 849.33029,438.19065 862.55409,423.47059 867.10119,413.61843 C 872.14609,420.25527 871.34309,437.37382 871.34309,437.37382 C 871.34309,437.37382 879.85479,427.49762 879.61699,415.31804 C 896.71149,433.50664 901.75639,482.59277 901.75639,482.59277 C 901.75639,482.59277 921.25459,444.43056 914.32619,433.13887 C 929.27709,457.5519 924.91239,448.81941 939.51929,466.90626 C 918.75759,412.11251 937.39799,387.50579 898.80119,364.01218 C 892.08869,339.5703 860.21969,315.27143 826.80464,305.6571 C 775.18529,290.80494 705.47808,287.7538 687.35871,378.41149 C 683.88587,395.78736 699.48444,396.60009 688.87443,441.31373 C 685.08513,445.10302 685.84299,454.95518 685.84299,454.95518 C 685.84299,454.95518 696.0455,455.71304 699.83479,453.43946 C 703.62409,451.16589 696.45301,461.01804 696.45301,461.01804 C 696.45301,461.01804 710.21062,454.48866 711.72634,451.45722 C 713.24206,448.42579 710.96848,462.53376 710.96848,462.53376 C 710.96848,462.53376 730.49763,438.74882 738.07621,437.99096 C 738.19052,431.16838 718.66693,388.02762 769.2074,370.07505 C 756.35525,428.70371 763.9024,462.53376 766.17597,464.04948 z "
     id="path4842"
     sodipodi:nodetypes="cccccccccccccssccscscccc" />
  <path
     style="opacity:1;fill:none;fill-opacity:0.75;fill-rule:evenodd;stroke:#000000;stroke-width:1.5;stroke-linecap:round;stroke-linejoin:miter;stroke-miterlimit:4;stroke-dasharray:none;stroke-opacity:1"
     d="M 735.97536,427.44237 C 737.79369,440.80399 748.37113,461.02049 757.32021,461.36099"
     id="path11013"
     sodipodi:nodetypes="cc" />
  <path
     style="opacity:1;fill:#ffffff;fill-opacity:1;fill-rule:evenodd;stroke:none;stroke-width:1px;stroke-linecap:butt;stroke-linejoin:miter;stroke-opacity:1"
     d="M 834.19376,480.72235 C 834.19376,480.72235 831.38992,500.70774 836.46733,504.02649 C 842.26469,507.81579 859.89829,474.95046 859.89829,473.24528 C 859.89829,471.54009 855.41379,470.11234 855.41379,470.11234 C 855.41379,470.11234 838.36198,475.41734 834.19376,480.72235 z "
     id="path4815"
     sodipodi:nodetypes="csscc" />
  <path
     style="opacity:1;fill:#000000;fill-opacity:1;fill-rule:evenodd;stroke:none;stroke-width:1;stroke-linecap:butt;stroke-linejoin:miter;stroke-miterlimit:4;stroke-dasharray:none;stroke-opacity:1"
     d="M 863.91319,476.8652 C 863.91319,476.8652 863.70589,475.58585 863.58329,473.8963 C 865.35539,473.72247 867.21199,473.8963 867.21199,473.8963 C 867.21199,473.8963 863.72369,471.55159 862.26379,467.29876 C 856.47089,467.93448 845.44009,469.6079 834.22426,480.16397 C 843.13099,474.55606 855.33639,470.92741 858.30529,472.5768 C 861.27419,474.22618 864.24309,477.52495 863.91319,476.8652 z "
     id="path3065"
     sodipodi:nodetypes="cccccsc" />
  <path
     style="opacity:1;fill:none;fill-opacity:0.75;fill-rule:evenodd;stroke:#000000;stroke-width:1;stroke-linecap:round;stroke-linejoin:miter;stroke-miterlimit:4;stroke-dasharray:none;stroke-opacity:1"
     d="M 834.57269,499.66881 C 834.57269,499.66881 835.70948,503.4581 836.84626,504.78436"
     id="path3940" />
  <g
     id="g16194"
     transform="translate(-166.6952,-123.1846)"
     style="opacity:1">
    <path
       transform="matrix(0.430831,0.810825,-0.589965,0.890028,968.4162,-746.6469)"
       d="M 982.01722 634.72852 A 3.8487611 13.878866 0 1 1  974.3197,634.72852 A 3.8487611 13.878866 0 1 1  982.01722 634.72852 z"
       sodipodi:ry="13.878866"
       sodipodi:rx="3.8487611"
       sodipodi:cy="634.72852"
       sodipodi:cx="978.16846"
       id="path7436"
       style="opacity:1;fill:#000000;fill-opacity:1;fill-rule:evenodd;stroke:none;stroke-width:1;stroke-linecap:round;stroke-linejoin:miter;stroke-miterlimit:4;stroke-dasharray:none;stroke-dashoffset:0;stroke-opacity:0.3021978"
       sodipodi:type="arc" />
    <path
       sodipodi:type="arc"
       style="opacity:1;fill:#744000;fill-opacity:1;fill-rule:evenodd;stroke:none;stroke-width:1;stroke-linecap:round;stroke-linejoin:miter;stroke-miterlimit:4;stroke-dasharray:none;stroke-dashoffset:0;stroke-opacity:0.3021978"
       id="path10932"
       sodipodi:cx="978.16846"
       sodipodi:cy="634.72852"
       sodipodi:rx="3.8487611"
       sodipodi:ry="13.878866"
       d="M 982.01722 634.72852 A 3.8487611 13.878866 0 1 1  974.3197,634.72852 A 3.8487611 13.878866 0 1 1  982.01722 634.72852 z"
       transform="matrix(0.282591,0.531838,-0.386971,0.583789,982.4483,-275.9871)" />
    <path
       sodipodi:nodetypes="cccsc"
       id="path11811"
       d="M 1012.4726,615.45714 C 1012.4726,615.45714 1011.4673,615.30777 1010.9732,614.89489 C 1009.1063,617.64056 1007.8803,621.43984 1007.8803,621.43984 C 1007.8803,621.43984 1010.8481,617.69083 1012.2695,618.09696 C 1013.691,618.50309 1012.0665,615.45714 1012.4726,615.45714 z "
       style="fill:#ebba7c;fill-opacity:1;fill-rule:evenodd;stroke:none;stroke-width:1px;stroke-linecap:butt;stroke-linejoin:miter;stroke-opacity:1" />
    <path
       transform="matrix(0.280923,0.528697,-0.384686,0.580342,986.0653,-274.4942)"
       d="M 982.01722 634.72852 A 3.8487611 13.878866 0 1 1  974.3197,634.72852 A 3.8487611 13.878866 0 1 1  982.01722 634.72852 z"
       sodipodi:ry="13.878866"
       sodipodi:rx="3.8487611"
       sodipodi:cy="634.72852"
       sodipodi:cx="978.16846"
       id="path11807"
       style="opacity:1;fill:#000000;fill-opacity:1;fill-rule:evenodd;stroke:none;stroke-width:1;stroke-linecap:round;stroke-linejoin:miter;stroke-miterlimit:4;stroke-dasharray:none;stroke-dashoffset:0;stroke-opacity:0.3021978"
       sodipodi:type="arc" />
    <path
       transform="matrix(0.705384,0.708826,-0.708826,0.705384,767.6934,-552.184)"
       d="M 997.87876 636.47797 A 1.0496621 2.799099 0 1 1  995.77944,636.47797 A 1.0496621 2.799099 0 1 1  997.87876 636.47797 z"
       sodipodi:ry="2.799099"
       sodipodi:rx="1.0496621"
       sodipodi:cy="636.47797"
       sodipodi:cx="996.8291"
       id="path10057"
       style="opacity:1;fill:#ffffff;fill-opacity:1;fill-rule:evenodd;stroke:none;stroke-width:1;stroke-linecap:round;stroke-linejoin:miter;stroke-miterlimit:4;stroke-dasharray:none;stroke-dashoffset:0;stroke-opacity:0.3021978"
       sodipodi:type="arc" />
    <path
       id="path11809"
       d="M 1014.1914,612.69134 L 1012.2327,610.95024 L 1017.2383,605.72693 L 1018.7618,607.2504 L 1014.1914,612.69134 z "
       style="fill:#000000;fill-opacity:1;fill-rule:evenodd;stroke:none;stroke-width:1px;stroke-linecap:butt;stroke-linejoin:miter;stroke-opacity:1" />
  </g>
  <path
     style="opacity:1;fill:none;fill-opacity:0.75;fill-rule:evenodd;stroke:#ddb27d;stroke-width:2;stroke-linecap:round;stroke-linejoin:miter;stroke-miterlimit:4;stroke-dasharray:none;stroke-opacity:1"
     d="M 818.66685,508.47472 C 818.66685,508.47472 820.13126,513.10119 820.13126,514.64012"
     id="path19694"
     sodipodi:nodetypes="cc" />
  <path
     style="opacity:1;fill:none;fill-opacity:0.75;fill-rule:evenodd;stroke:#ddb27d;stroke-width:2;stroke-linecap:round;stroke-linejoin:miter;stroke-miterlimit:4;stroke-dasharray:none;stroke-opacity:1"
     d="M 824.17132,517.43064 C 824.17132,517.43064 822.83216,509.81841 822.22298,508.80309"
     id="path22319"
     sodipodi:nodetypes="cc" />
  <path
     style="opacity:1;fill:none;fill-opacity:0.75;fill-rule:evenodd;stroke:#ddb27d;stroke-width:2;stroke-linecap:round;stroke-linejoin:miter;stroke-miterlimit:4;stroke-dasharray:none;stroke-opacity:1"
     d="M 828.02952,520.07046 C 828.02952,520.07046 827.45951,514.66174 827.05339,513.64642"
     id="path23194"
     sodipodi:nodetypes="cc" />
  <path
     style="opacity:0.2;fill:#000000;fill-opacity:1;fill-rule:evenodd;stroke:none;stroke-width:1px;stroke-linecap:butt;stroke-linejoin:miter;stroke-opacity:1"
     d="M 742.02471,554.39077 C 742.02471,554.39077 729.09565,541.23273 726.11431,537.78375 C 724.30808,537.67362 721.96078,537.18139 721.17134,537.38272 C 719.0624,532.6359 718.1266,518.8086 720.56495,519.86855 C 723.54131,521.16237 726.53314,532.79449 742.02471,554.39077 z "
     id="path27561"
     sodipodi:nodetypes="cccsc" />
  <path
     sodipodi:nodetypes="cc"
     id="path35420"
     d="M 813.92104,495.12166 C 813.92104,495.12166 834.01545,467.98458 847.93279,427.55803"
     style="opacity:1;fill:none;fill-opacity:1;fill-rule:evenodd;stroke:#000000;stroke-width:1.5;stroke-linecap:round;stroke-linejoin:miter;stroke-miterlimit:4;stroke-dasharray:none;stroke-opacity:1" />
  <path
     style="opacity:1;fill:none;fill-opacity:0.75;fill-rule:evenodd;stroke:#000000;stroke-width:2;stroke-linecap:round;stroke-linejoin:miter;stroke-miterlimit:4;stroke-dasharray:none;stroke-opacity:1"
     d="M 725.6838,882.69142 C 725.6838,882.69142 692.45882,868.22248 685.49229,867.1507 C 678.52576,866.07893 606.18105,892.87327 606.18105,892.87327"
     id="path7474" />
  <path
     style="opacity:1;fill:#ffffff;fill-opacity:1;fill-rule:evenodd;stroke:#000000;stroke-width:1.5;stroke-linecap:butt;stroke-linejoin:miter;stroke-miterlimit:4;stroke-dasharray:none;stroke-opacity:1"
     d="M 609.25957,890.79259 C 609.25957,890.79259 596.45474,944.57949 634.93614,969.2765 C 564.75773,983.93262 500.53843,997.4933 500.53843,997.4933 C 500.53843,997.4933 488.4771,1007.2572 494.22059,1018.1698 C 499.96408,1029.0825 469.52358,1048.6104 469.52358,1048.6104 L 441.38047,952.69404 L 609.25957,890.79259 z "
     id="path17964"
     sodipodi:nodetypes="cccsccc" />
  <path
     style="opacity:1;fill:none;fill-opacity:0.75;fill-rule:evenodd;stroke:#000000;stroke-width:1.5;stroke-linecap:butt;stroke-linejoin:miter;stroke-miterlimit:4;stroke-dasharray:none;stroke-opacity:1"
     d="M 594.65692,1093.3684 C 594.65692,1093.3684 587.34665,1099.4603 544.29727,1097.0236"
     id="path29331"
     sodipodi:nodetypes="cc" />
  <path
     style="opacity:1;fill:#544937;fill-opacity:1;fill-rule:evenodd;stroke:#000000;stroke-width:1.5;stroke-linecap:butt;stroke-linejoin:miter;stroke-miterlimit:4;stroke-dasharray:none;stroke-opacity:1"
     d="M 475.26707,1041.1438 C 476.74388,1027.7874 510.87671,998.642 499.96408,1035.4003 C 505.70757,1042.8669 507.43062,1060.6717 508.00497,1062.9691 C 508.57932,1065.2665 532.06992,1076.7535 538.44548,1076.1791 C 550.47178,1075.0957 551.65551,1100.3018 551.65551,1100.3018 C 551.65551,1100.3018 555.82713,1106.663 551.74435,1111.2025 C 549.99748,1113.1448 473.73944,1116.0046 469.719,1114.8559 C 465.69855,1113.7072 441.65742,1083.497 438.21132,1078.3278 C 434.76523,1073.1587 424.72434,1039.4208 421.8526,1037.1234 C 418.98085,1034.826 414.95622,1036.68 409.98668,1036.3655 C 402.36464,1021.6517 386.09807,990.82769 386.43837,988.49911 C 386.82602,985.84656 386.8173,977.96541 390.26339,976.24236 C 393.70949,974.51931 447.12396,944.65315 447.12396,944.65315 C 447.12396,944.65315 448.60076,994.18793 475.26707,1041.1438 z "
     id="path20587"
     sodipodi:nodetypes="ccsscsssscsscc" />
  <path
     style="opacity:0.2;fill:#000000;fill-opacity:1;fill-rule:evenodd;stroke:none;stroke-width:1px;stroke-linecap:butt;stroke-linejoin:miter;stroke-opacity:1"
     d="M 397.46713,972.19859 C 397.46713,972.19859 447.60843,993.31072 493.79121,991.99121 C 508.25087,991.60474 520.84112,993.97047 520.84112,993.97047 L 597.37258,976.85689 C 597.37258,976.85689 603.1968,943.51059 607.65013,921.77702 C 610.13323,902.01367 615.18593,889.92259 617.82495,889.26283 C 623.10298,887.94332 579.55922,899.62566 579.55922,899.62566 L 397.46713,972.19859 z "
     id="path26708"
     sodipodi:nodetypes="cccccscc" />
  <path
     style="opacity:1;fill:#244769;fill-opacity:1;fill-rule:evenodd;stroke:#000000;stroke-width:1.5;stroke-linecap:butt;stroke-linejoin:miter;stroke-miterlimit:4;stroke-dasharray:none;stroke-opacity:1"
     d="M 642.74504,779.57715 C 642.74504,779.57715 629.95108,793.09727 636.44984,842.18805 C 640.50996,872.85763 519.46609,1000.0647 509.61393,1004.6119 C 485.76628,997.0296 440.45588,956.62465 440.45588,956.62465 C 440.45588,956.62465 411.51671,973.79117 389.32903,978.13602 C 374.81541,975.51026 350.91014,958.91256 313.62593,889.88601 C 285.31,837.46298 307.41397,800.89355 311.56643,768.18786 C 312.3015,762.39827 316.05003,749.32183 321.93865,748.21362 C 320.1869,739.46598 322.52134,717.20044 329.34206,712.65329 C 339.89492,711.37176 429.55453,719.41501 429.55453,719.41501 L 642.74504,779.57715 z "
     id="path10970"
     sodipodi:nodetypes="cscccsscccc" />
  <path
     style="opacity:0.2;fill:#000000;fill-opacity:1;fill-rule:evenodd;stroke:none;stroke-width:1px;stroke-linecap:butt;stroke-linejoin:miter;stroke-opacity:1"
     d="M 329.61024,688.82292 C 329.61024,688.82292 388.3738,751.27991 443.7753,774.05608 C 499.1768,796.83225 459.78018,729.73488 459.78018,729.73488 L 336.66574,658.32851 C 336.66574,658.32851 333.37138,666.99303 332.97268,672.48441 C 332.5945,677.69319 329.61024,688.82292 329.61024,688.82292 z "
     id="path16216"
     sodipodi:nodetypes="csccsc" />
  <path
     style="opacity:1;fill:#244769;fill-opacity:1;fill-rule:evenodd;stroke:#000000;stroke-width:1.5;stroke-linecap:butt;stroke-linejoin:miter;stroke-miterlimit:4;stroke-dasharray:none;stroke-opacity:1"
     d="M 645.81526,440.55803 C 474.81527,409.55803 346.31527,590.55803 304.81527,641.55803 C 344.50777,700.48412 420.81527,725.55802 420.81527,725.55802 L 577.81526,649.55803 C 577.81526,649.55803 598.81526,654.55803 635.81526,591.55803 C 647.36346,571.89489 660.81526,449.55803 660.81526,449.55803 C 660.81526,449.55803 655.81526,446.05803 645.81526,440.55803 z "
     id="path5703"
     sodipodi:nodetypes="ccccscc" />
  <path
     style="opacity:1;fill:#cccccc;fill-opacity:1;fill-rule:evenodd;stroke:#000000;stroke-width:1.5;stroke-linecap:butt;stroke-linejoin:miter;stroke-miterlimit:4;stroke-dasharray:none;stroke-opacity:1"
     d="M 560.96535,677.78147 C 560.96535,677.78147 532.76457,678.51857 533.83635,673.1597 C 534.90812,667.80084 466.18118,631.20857 466.18118,631.20857 C 466.18118,631.20857 453.28707,616.54052 454.35884,611.71754 C 455.43061,606.89456 481.85534,611.53273 481.85534,611.53273 L 562.23835,669.4085 L 560.96535,677.78147 z "
     id="path2221"
     sodipodi:nodetypes="cscsccc" />
  <path
     style="opacity:1;fill:#ae241c;fill-opacity:1;fill-rule:evenodd;stroke:#000000;stroke-width:1.5;stroke-linecap:butt;stroke-linejoin:miter;stroke-miterlimit:4;stroke-dasharray:none;stroke-opacity:1"
     d="M 661.2126,643.66189 C 661.2126,643.66189 672.19426,641.07289 684.32727,625.4733 C 686.97978,622.06293 685.65353,592.31699 678.64334,587.58037 C 672.39134,583.35605 661.2126,605.01112 661.2126,605.01112 L 661.2126,643.66189 z "
     id="path13574"
     sodipodi:nodetypes="csscc" />
  <path
     style="opacity:1;fill:#ae241c;fill-opacity:1;fill-rule:evenodd;stroke:#000000;stroke-width:1.5;stroke-linecap:butt;stroke-linejoin:miter;stroke-miterlimit:4;stroke-dasharray:none;stroke-opacity:1"
     d="M 665.00189,610.69506 C 665.00189,610.69506 662.34938,671.32371 656.28652,699.7434 C 649.4658,700.50126 643.78186,706.94306 643.78186,706.94306 C 643.78186,706.94306 635.82434,709.59556 633.17184,707.70092 C 630.51933,703.15376 634.30863,664.12406 634.30863,664.12406 L 657.80224,611.83184 L 665.00189,610.69506 z "
     id="path12699"
     sodipodi:nodetypes="ccccccc" />
  <path
     style="opacity:1;fill:#ae241c;fill-opacity:1;fill-rule:evenodd;stroke:#000000;stroke-width:1.5;stroke-linecap:butt;stroke-linejoin:miter;stroke-miterlimit:4;stroke-dasharray:none;stroke-opacity:1"
     d="M 636.5822,634.94652 C 636.5822,634.94652 605.03128,690.22948 604.75216,698.22769 C 610.81503,702.77484 618.77253,706.56413 618.77253,706.56413 C 618.77253,706.56413 624.83541,708.07984 628.62469,706.94306 C 634.30863,695.57518 659.69688,624.71543 662.34939,612.96863 C 665.00189,601.22183 636.5822,634.56759 636.5822,634.94652 z "
     id="path10951"
     sodipodi:nodetypes="ccccsc" />
  <path
     style="opacity:1;fill:#ae241c;fill-opacity:1;fill-rule:evenodd;stroke:#000000;stroke-width:1.5;stroke-linecap:butt;stroke-linejoin:miter;stroke-miterlimit:4;stroke-dasharray:none;stroke-opacity:1"
     d="M 668.03332,606.14791 C 668.03332,606.14791 678.64334,598.56932 680.53798,594.02217 C 682.43263,589.47502 680.91691,579.62287 680.91691,579.62287 L 664.62296,585.68573 L 668.03332,606.14791 z "
     id="path15322" />
  <path
     style="opacity:1;fill:#ae241c;fill-opacity:1;fill-rule:evenodd;stroke:#000000;stroke-width:1.5;stroke-linecap:butt;stroke-linejoin:miter;stroke-miterlimit:4;stroke-dasharray:none;stroke-opacity:1"
     d="M 649.49315,589.35325 C 649.49315,589.35325 637.35024,596.62403 634.69774,599.44577 C 631.98646,602.33002 627.53855,627.89981 629.70053,636.85554 C 631.85695,645.78824 663.61821,616.14222 667.3065,610.46538 C 670.50488,605.5426 675.22355,579.45694 675.22355,579.45694 L 649.49315,589.35325 z "
     id="path9203"
     sodipodi:nodetypes="cssscc" />
  <path
     style="opacity:1;fill:#ffffff;fill-opacity:1;fill-rule:evenodd;stroke:#000000;stroke-width:1.5;stroke-linecap:butt;stroke-linejoin:miter;stroke-miterlimit:4;stroke-dasharray:none;stroke-opacity:1"
     d="M 645.81526,484.55803 C 645.81526,484.55803 640.31526,443.55803 644.31526,439.05803 C 648.31526,434.55803 660.81526,438.55803 664.81526,438.55803 C 668.81526,438.55803 687.69723,435.0859 688.81526,439.55803 C 689.81526,443.55803 690.78955,477.33767 692.81526,488.55803 C 694.50657,497.92618 695.24295,567.13187 688.81526,581.05803 C 686.36271,586.37169 643.81526,593.55803 640.31526,592.05803 C 636.81526,590.55803 628.31526,529.05803 628.31526,529.05803 L 645.81526,484.55803 z "
     id="path2209"
     sodipodi:nodetypes="csssssscc" />
  <path
     style="opacity:1;fill:none;fill-opacity:0.75;fill-rule:evenodd;stroke:#000000;stroke-width:1.5;stroke-linecap:butt;stroke-linejoin:miter;stroke-miterlimit:4;stroke-dasharray:none;stroke-opacity:1"
     d="M 330.72155,748.61888 C 330.72155,748.61888 389.96914,750.48495 414.69452,753.28405"
     id="path12718" />
  <path
     style="opacity:1;fill:#eed4a6;fill-opacity:1;fill-rule:evenodd;stroke:#000000;stroke-width:1.5;stroke-linecap:butt;stroke-linejoin:miter;stroke-miterlimit:4;stroke-dasharray:none;stroke-opacity:1"
     d="M 473.51031,618.99878 C 443.02299,653.63157 392.81561,739.11441 400.75591,789.89583 C 402.98507,804.15218 478.65191,809.0881 533.53466,797.22367 C 606.58306,781.43223 697.83209,776.51695 698.74777,779.03507 C 699.50563,781.11918 710.18502,800.50477 758.46711,820.58042 C 764.15839,822.94685 767.38479,824.74863 769.71265,827.49394 C 774.62274,833.2845 778.69329,836.09764 782.90756,842.15325 C 784.96311,845.10693 788.86733,870.51882 797.15654,873.87151 C 798.93025,874.58891 800.33057,874.45434 801.73146,872.57889 C 803.73915,877.57593 811.12181,876.96154 810.37364,873.01671 C 809.47091,868.25696 808.26616,852.3184 809.24097,842.35203 C 810.77105,834.79862 812.46028,831.54807 812.11893,824.42719 C 811.78414,817.44307 797.89208,796.99901 793.22079,790.9236 C 788.70632,785.05214 724.47095,738.10928 710.81715,735.24833 C 693.43075,731.60526 588.38988,725.64293 567.63828,722.95356 C 543.83244,719.86837 537.30096,716.91479 515.19252,714.48893 C 519.93324,707.67864 544.74899,670.53315 554.60115,663.71242 C 564.4533,656.8917 478.38672,613.45931 473.51031,618.99878 z "
     id="path3969"
     sodipodi:nodetypes="cssssssscscszsscss" />
  <path
     style="opacity:0.2;fill:#000000;fill-opacity:1;fill-rule:evenodd;stroke:none;stroke-width:1px;stroke-linecap:butt;stroke-linejoin:miter;stroke-opacity:1"
     d="M 464.39697,628.47325 C 464.39697,628.47325 529.1304,659.14075 540.51849,679.14685 C 551.90657,665.60427 554.27052,662.63751 554.27052,662.63751 C 554.27052,662.63751 486.9883,601.60987 473.32277,618.00852 C 467.16705,625.39539 464.39697,629.08882 464.39697,628.47325 z "
     id="path9209"
     sodipodi:nodetypes="cccsc" />
  <path
     style="opacity:1;fill:#ffffff;fill-opacity:1;fill-rule:evenodd;stroke:#000000;stroke-width:1.5;stroke-linecap:butt;stroke-linejoin:miter;stroke-miterlimit:4;stroke-dasharray:none;stroke-opacity:1"
     d="M 495.1107,514.80109 C 498.20738,509.3389 558.03237,466.94828 634.97853,473.23659 C 666.38977,475.80362 653.45164,567.5814 649.49312,576.81796 C 645.5346,586.05451 609.24813,615.74344 603.9701,621.68122 C 598.69207,627.61901 568.22676,661.26646 561.62922,677.10055 C 551.07315,662.25609 517.21246,640.48421 512.2643,638.83483 C 488.67036,630.97021 460.47362,617.39282 454.20595,611.78491 C 454.8657,607.82639 481.41562,580.26611 486.0339,577.6271 C 487.35341,571.68931 484.30743,533.85682 495.1107,514.80109 z "
     id="path8324"
     sodipodi:nodetypes="cssscsccs" />
  <path
     style="opacity:1;fill:none;fill-opacity:0.75;fill-rule:evenodd;stroke:#000000;stroke-width:1.5;stroke-linecap:round;stroke-linejoin:miter;stroke-miterlimit:4;stroke-dasharray:none;stroke-opacity:1"
     d="M 485.84168,577.74981 C 494.09056,571.73613 516.22282,549.10829 528.75815,533.2742"
     id="path9199"
     sodipodi:nodetypes="cc" />
  <path
     style="opacity:1;fill:none;fill-opacity:0.75;fill-rule:evenodd;stroke:#000000;stroke-width:1.5;stroke-linecap:round;stroke-linejoin:miter;stroke-miterlimit:4;stroke-dasharray:none;stroke-opacity:1"
     d="M 801.78458,871.99798 C 801.78458,871.99798 800.92305,864.53144 800.06153,861.94687 C 799.2,859.3623 796.90261,837.82421 796.04108,834.37811 C 795.17956,830.93202 784.5541,819.44503 783.11823,815.42459"
     id="path2224" />
  <path
     style="opacity:1;fill:none;fill-opacity:0.75;fill-rule:evenodd;stroke:#000000;stroke-width:1.5;stroke-linecap:round;stroke-linejoin:miter;stroke-miterlimit:4;stroke-dasharray:none;stroke-opacity:1"
     d="M 809.33915,845.15938 C 809.33915,845.15938 808.96394,834.66529 807.24089,830.35767 C 805.51785,826.05005 796.90261,815.42459 794.31804,807.3837"
     id="path3099"
     sodipodi:nodetypes="csc" />
  <path
     style="opacity:1;fill:none;fill-opacity:0.75;fill-rule:evenodd;stroke:#000000;stroke-width:1.5;stroke-linecap:round;stroke-linejoin:miter;stroke-miterlimit:4;stroke-dasharray:none;stroke-opacity:1"
     d="M 516.35383,714.72943 C 516.35383,714.72943 504.74578,712.88662 496.27534,712.56195"
     id="path3974"
     sodipodi:nodetypes="cc" />
  <path
     style="opacity:1;fill:none;fill-opacity:0.75;fill-rule:evenodd;stroke:#000000;stroke-width:1.5;stroke-linecap:round;stroke-linejoin:miter;stroke-miterlimit:4;stroke-dasharray:none;stroke-opacity:1"
     d="M 440.16455,956.62465 C 431.82811,949.80392 409.09235,928.58389 402.27163,914.94244 C 389.36578,889.13072 341.64297,834.60947 341.64297,834.60947"
     id="path10095"
     sodipodi:nodetypes="csc" />
  <path
     style="opacity:1;fill:none;fill-opacity:0.75;fill-rule:evenodd;stroke:#000000;stroke-width:1.5;stroke-linecap:butt;stroke-linejoin:miter;stroke-miterlimit:4;stroke-dasharray:none;stroke-opacity:1"
     d="M 408.00516,972.83168 C 408.00516,972.83168 445.7862,1076.256 467.45288,1099.1264 C 480.18081,1112.5614 551.97752,1101.5251 551.97752,1101.5251"
     id="path22335"
     sodipodi:nodetypes="csc" />
  <path
     style="opacity:1;fill:none;fill-opacity:0.75;fill-rule:evenodd;stroke:#000000;stroke-width:1.5;stroke-linecap:round;stroke-linejoin:miter;stroke-miterlimit:4;stroke-dasharray:none;stroke-opacity:1"
     d="M 499.19432,1035.2049 C 499.19432,1035.2049 483.11254,1036.7444 480.24079,1039.6162"
     id="path23210"
     sodipodi:nodetypes="cc" />
  <path
     style="opacity:1;fill:none;fill-opacity:0.75;fill-rule:evenodd;stroke:#000000;stroke-width:1.5;stroke-linecap:butt;stroke-linejoin:miter;stroke-miterlimit:4;stroke-dasharray:none;stroke-opacity:1"
     d="M 475.45058,1042.0852 C 475.45058,1042.0852 478.51774,1040.753 478.51774,1043.6247 C 478.51774,1046.4965 484.45666,1066.4152 487.3284,1068.1382 C 490.20015,1069.8613 506.08651,1060.6717 507.2352,1062.9691"
     id="path24085"
     sodipodi:nodetypes="cssc" />
  <path
     style="opacity:1;fill:none;fill-opacity:0.75;fill-rule:evenodd;stroke:#000000;stroke-width:1.5;stroke-linecap:round;stroke-linejoin:miter;stroke-miterlimit:4;stroke-dasharray:none;stroke-opacity:1"
     d="M 493.64624,1073.8817 C 493.64624,1073.8817 509.15367,1080.1996 531.55329,1079.6252"
     id="path24960" />
  <path
     style="opacity:1;fill:none;fill-opacity:0.75;fill-rule:evenodd;stroke:#000000;stroke-width:1.5;stroke-linecap:round;stroke-linejoin:miter;stroke-miterlimit:4;stroke-dasharray:none;stroke-opacity:1"
     d="M 569.88322,1068.1886 C 569.88322,1068.1886 543.89114,1071.8437 526.42771,1060.8783"
     id="path30206"
     sodipodi:nodetypes="cc" />
  <path
     style="opacity:1;fill:none;fill-opacity:0.75;fill-rule:evenodd;stroke:#000000;stroke-width:1.5;stroke-linecap:round;stroke-linejoin:miter;stroke-miterlimit:4;stroke-dasharray:none;stroke-opacity:1"
     d="M 526.42772,1022.2963 C 526.42772,1022.2963 511.80718,1028.7944 508.55817,1032.0434"
     id="path31081" />
  <path
     style="opacity:1;fill:none;fill-opacity:0.75;fill-rule:evenodd;stroke:#000000;stroke-width:1.5;stroke-linecap:round;stroke-linejoin:miter;stroke-miterlimit:4;stroke-dasharray:none;stroke-opacity:1"
     d="M 507.33979,1039.3536 C 507.33979,1039.3536 512.9461,1051.1326 520.33583,1056.4109 C 523.17871,1058.4416 538.20538,1050.7252 538.20538,1050.7252"
     id="path31956"
     sodipodi:nodetypes="csc" />
  <path
     sodipodi:nodetypes="ccsccssscssc"
     id="path2273"
     d="M 1122.0141,633.22988 C 1122.0141,633.22988 1115.6136,618.98082 1112.553,612.7775 C 1109.9276,611.7975 1104.4313,610.61098 1102.8812,608.60818 C 1100.3228,605.30273 1098.0247,593.86911 1101.3235,592.5496 C 1098.5284,587.31263 1100.345,584.42574 1100.8882,580.44956 C 1109.5545,577.6561 1116.1895,578.77776 1119.4579,577.19622 C 1123.2434,575.36451 1142.2463,575.6278 1145.2669,577.82881 C 1148.8387,580.43148 1127.7559,583.42611 1122.5556,585.67096 C 1118.5373,587.40553 1130,592.23618 1144.9545,587.9608 C 1147.4056,591.29771 1155.7404,597.14295 1156.1942,601.2638 C 1156.424,603.35024 1140.5528,618.76735 1143.4245,633.92568 C 1144.1613,637.81502 1123.3336,634.54938 1122.0141,633.22988 z "
     style="opacity:1;fill:#ffeb94;fill-opacity:1;fill-rule:evenodd;stroke:none;stroke-width:1.5;stroke-linecap:butt;stroke-linejoin:miter;stroke-miterlimit:4;stroke-dasharray:none;stroke-opacity:1" />
  <path
     style="fill:none;fill-opacity:0.75;fill-rule:evenodd;stroke:#000000;stroke-width:1.5;stroke-linecap:round;stroke-linejoin:miter;stroke-miterlimit:4;stroke-dasharray:none;stroke-opacity:1"
     d="M 1102.0862,592.70846 C 1102.0862,592.70846 1106.0037,593.57901 1111.227,599.23759"
     id="path2407" />
  <path
     style="opacity:1;fill:#c6a998;fill-opacity:1;fill-rule:evenodd;stroke:none;stroke-width:1px;stroke-linecap:butt;stroke-linejoin:miter;stroke-opacity:1"
     d="M 1174.8538,565.27244 C 1174.8538,565.27244 1186.9795,556.55707 1188.6847,556.936 C 1190.3898,557.31493 1179.022,575.1246 1177.8852,576.26139 C 1176.7484,577.39818 1175.9905,575.31407 1175.9905,575.31407 L 1172.2013,576.07192 L 1176.5589,571.33531 L 1171.2539,571.33531 L 1175.2327,567.16709 L 1173.1486,565.65137 L 1174.8538,565.27244 z "
     id="path10142" />
  <path
     sodipodi:nodetypes="ccscsscccsssc"
     id="path1398"
     d="M 1122.0141,633.22988 C 1122.0141,633.22988 1115.6136,618.98082 1112.553,612.7775 C 1109.9276,611.7975 1104.4313,610.61098 1102.8812,608.60818 C 1100.3228,605.30273 1098.0247,593.86911 1101.3235,592.5496 C 1098.5284,587.31263 1100.345,584.42574 1100.8882,580.44956 C 1101.548,575.62049 1114.3079,572.757 1120.0074,572.09723 C 1123.9939,571.63576 1126.4242,562.77528 1154.3283,564.61546 C 1163.4961,557.451 1171.2221,548.24245 1173.672,548.13529 C 1176.1231,551.4722 1174.0799,561.17431 1174.7807,565.27522 C 1179.3989,561.97645 1192.8185,551.85567 1192.8185,555.81419 C 1192.8185,559.77271 1191.7098,579.36821 1186.6562,588.36661 C 1182.444,595.86684 1190.1111,604.91519 1164.8844,629.27135 C 1145.4186,648.06544 1123.3336,634.54938 1122.0141,633.22988 z "
     style="fill:none;fill-opacity:1;fill-rule:evenodd;stroke:#000000;stroke-width:1.5;stroke-linecap:butt;stroke-linejoin:miter;stroke-miterlimit:4;stroke-dasharray:none;stroke-opacity:1" />
  <path
     style="fill:#000000;fill-opacity:1;fill-rule:evenodd;stroke:none;stroke-width:1px;stroke-linecap:butt;stroke-linejoin:miter;stroke-opacity:1"
     d="M 1100.783,582.3079 C 1100.783,582.3079 1106.5265,579.72333 1107.9624,578.00028 C 1109.3982,576.27723 1107.9624,574.26701 1107.9624,574.26701 C 1107.9624,574.26701 1099.9215,577.13876 1100.783,582.3079 z "
     id="path5767" />
  <path
     style="fill:#ffffff;fill-opacity:1;fill-rule:evenodd;stroke:#000000;stroke-width:1.5;stroke-linecap:butt;stroke-linejoin:miter;stroke-miterlimit:4;stroke-dasharray:none;stroke-opacity:1"
     d="M 1126.3415,573.40549 C 1126.3415,573.40549 1135.571,571.92843 1139.2644,572.54397 C 1140.9875,572.83114 1142.1361,575.70289 1142.1361,575.70289 C 1142.1361,575.70289 1133.5209,580.58485 1127.2031,580.58485 C 1127.203,577.71311 1130.6491,573.69267 1130.6491,573.69267 L 1126.3415,573.40549 z "
     id="path6642"
     sodipodi:nodetypes="cscccc" />
  <path
     style="fill:#000000;fill-opacity:1;fill-rule:evenodd;stroke:none;stroke-width:1px;stroke-linecap:butt;stroke-linejoin:miter;stroke-opacity:1"
     d="M 1133.2337,572.54397 C 1133.2337,572.54397 1132.085,579.43616 1127.4902,580.29768 C 1130.8042,570.13476 1132.9466,572.54397 1133.2337,572.54397 z "
     id="path6644"
     sodipodi:nodetypes="ccc" />
  <path
     sodipodi:type="arc"
     style="opacity:1;fill:#ffffff;fill-opacity:1;fill-rule:evenodd;stroke:none;stroke-width:1.5;stroke-linecap:round;stroke-linejoin:miter;stroke-miterlimit:4;stroke-dasharray:none;stroke-dashoffset:0;stroke-opacity:1"
     id="path7519"
     sodipodi:cx="1030.8132"
     sodipodi:cy="592.9129"
     sodipodi:rx="0.71793646"
     sodipodi:ry="1.7230475"
     d="M 1031.5312 592.9129 A 0.71793646 1.7230475 0 1 1  1030.0953,592.9129 A 0.71793646 1.7230475 0 1 1  1031.5312 592.9129 z"
     transform="matrix(0.903671,0.428227,-0.428227,0.903671,453.641,-401.7379)" />
  <path
     style="fill:none;fill-opacity:0.75;fill-rule:evenodd;stroke:#000000;stroke-width:1.5;stroke-linecap:butt;stroke-linejoin:miter;stroke-miterlimit:4;stroke-dasharray:none;stroke-opacity:1"
     d="M 1153.9725,564.69292 C 1153.9725,564.69292 1160.7029,566.04873 1166.1275,569.01252 C 1172.205,566.53538 1174.9696,564.72543 1174.9696,564.72543 C 1174.9696,564.72543 1174.3157,566.04873 1173.094,567.13692 C 1177.1647,566.75799 1176.5773,566.86897 1176.5773,566.86897 C 1176.5773,566.86897 1171.4864,569.81635 1170.6825,571.69196 C 1174.2315,571.60882 1177.3811,571.15607 1177.3811,571.15607 C 1177.3811,571.15607 1172.8261,574.63933 1172.2902,576.24699 C 1176.2402,574.73095 1176.8127,574.2279 1176.8127,574.2279 C 1176.8127,574.2279 1173.6299,580.53409 1173.8979,581.60586 C 1180.6949,572.01339 1188.5858,563.85473 1189.8071,555.9514"
     id="path9267"
     sodipodi:nodetypes="ccccccccccc" />
  <path
     style="fill:none;fill-opacity:0.75;fill-rule:evenodd;stroke:#000000;stroke-width:1.5;stroke-linecap:round;stroke-linejoin:miter;stroke-miterlimit:4;stroke-dasharray:none;stroke-opacity:1"
     d="M 1117.3618,587.62501 C 1117.3618,587.62501 1131.8308,589.91211 1136.1179,594.1992"
     id="path11902"
     sodipodi:nodetypes="cc" />
  <path
     style="fill:none;fill-opacity:0.75;fill-rule:evenodd;stroke:#000000;stroke-width:1.5;stroke-linecap:round;stroke-linejoin:miter;stroke-miterlimit:4;stroke-dasharray:none;stroke-opacity:1"
     d="M 1115.2183,592.59154 C 1115.2183,592.59154 1125.4002,597.95041 1131.2949,606.5246"
     id="path11904"
     sodipodi:nodetypes="cc" />
  <path
     style="fill:#ffffff;fill-opacity:1;fill-rule:evenodd;stroke:#000000;stroke-width:1.5;stroke-linecap:butt;stroke-linejoin:miter;stroke-miterlimit:4;stroke-dasharray:none;stroke-opacity:1"
     d="M 1166.4262,626.61107 C 1164.1335,627.21066 1144.9055,629.81984 1125.0013,627.82945 C 1120.94,627.42333 1116.4726,644.88675 1116.4726,644.88675 C 1116.4726,644.88675 1107.8232,675.34621 1103.3558,681.84423 C 1098.8884,688.34225 1113.6297,689.96676 1113.6297,689.96676 L 1163.1772,639.20099 C 1163.1772,639.20099 1169.3435,625.84811 1166.4262,626.61107 z "
     id="path12779"
     sodipodi:nodetypes="cscsccs" />
  <path
     style="fill:#8b3140;fill-opacity:1;fill-rule:evenodd;stroke:#000000;stroke-width:1.5;stroke-linecap:butt;stroke-linejoin:miter;stroke-miterlimit:4;stroke-dasharray:none;stroke-opacity:1"
     d="M 1097.9311,695.4346 C 1097.9311,695.4346 1088.1843,736.35895 1094.2472,750.37933 C 1100.3101,764.39971 1111.7104,746.60205 1112.0893,750.77027 C 1112.4682,754.93849 1171.8223,658.29955 1171.8223,658.29955 L 1163.4859,645.41596 L 1097.9311,695.4346 z "
     id="path18902"
     sodipodi:nodetypes="cssccc" />
  <path
     style="fill:#52677b;fill-opacity:1;fill-rule:evenodd;stroke:#000000;stroke-width:1.5;stroke-linecap:butt;stroke-linejoin:miter;stroke-miterlimit:4;stroke-dasharray:none;stroke-opacity:1"
     d="M 1114.442,642.85612 C 1112.3099,639.09945 1109.4279,636.87495 1107.5378,638.79486 C 1102.6846,643.72463 1104.6694,658.76671 1108.7562,662.35018 C 1111.2804,664.56346 1115.0511,654.12612 1116.0665,649.76026 C 1117.2828,644.53016 1118.3091,649.66959 1114.442,642.85612 z "
     id="path15406"
     sodipodi:nodetypes="cssss" />
  <path
     style="fill:#52677b;fill-opacity:1;fill-rule:evenodd;stroke:#000000;stroke-width:1px;stroke-linecap:butt;stroke-linejoin:miter;stroke-opacity:1"
     d="M 1163.1772,638.79486 C 1145.1241,637.15023 1127.438,637.57648 1122.5645,643.26224 C 1113.6838,653.62312 1116.8787,642.44999 1116.8787,642.44999 C 1116.8787,642.44999 1111.5991,640.82549 1110.7868,646.10513 C 1109.9746,651.38477 1116.0664,650.16639 1116.0664,650.16639 L 1119.7216,655.44603 C 1119.7216,655.44603 1131.0931,654.22765 1136.7789,657.07053 C 1142.4647,659.91342 1164.321,638.89906 1163.1772,638.79486 z "
     id="path14529"
     sodipodi:nodetypes="cscsccss" />
  <path
     style="fill:#60001b;fill-opacity:1;fill-rule:evenodd;stroke:#000000;stroke-width:1.5;stroke-linecap:butt;stroke-linejoin:round;stroke-miterlimit:4;stroke-dasharray:none;stroke-opacity:1"
     d="M 1157.5131,645.03446 C 1154.6702,644.62833 1129.4226,651.77386 1104.9043,684.47767 C 1104.6896,673.80491 1118.3066,654.27493 1118.3066,654.27493 C 1118.3066,654.27493 1096.7995,675.90843 1097.3847,696.46478 C 1097.4448,698.57548 1100.3387,695.94754 1105.6184,693.51079 C 1110.898,691.07403 1122.5586,684.53886 1126.908,679.91194 C 1131.2702,675.27144 1141.2336,664.98362 1146.9194,662.14073 C 1152.6051,659.29785 1163.5705,652.70148 1167.6318,652.70148 C 1167.9997,652.70148 1159.9626,646.77007 1157.5131,645.03446 z "
     id="path16281"
     sodipodi:nodetypes="cccsssssc" />
  <path
     style="fill:#52677b;fill-opacity:1;fill-rule:evenodd;stroke:#000000;stroke-width:1.5;stroke-linecap:butt;stroke-linejoin:miter;stroke-miterlimit:4;stroke-dasharray:none;stroke-opacity:1"
     d="M 1122.9706,637.17035 C 1120.0633,634.6825 1108.6284,650.89584 1115.2542,661.53793 C 1119.3046,668.04348 1126.9712,640.59378 1122.9706,637.17035 z "
     id="path14531"
     sodipodi:nodetypes="css" />
  <path
     style="fill:#483f2f;fill-opacity:1;fill-rule:evenodd;stroke:#000000;stroke-width:1.5;stroke-linecap:butt;stroke-linejoin:miter;stroke-miterlimit:4;stroke-dasharray:none;stroke-opacity:1"
     d="M 1130.3792,1085.8006 C 1130.3792,1085.8006 1119.062,1091.5339 1113.8387,1092.4045 C 1108.6154,1093.275 1102.5215,1092.4045 1099.0393,1096.7573 C 1095.5571,1101.11 1099.0393,1106.3333 1099.0393,1106.3333 C 1099.0393,1106.3333 1122.5442,1108.0744 1130.3791,1106.3333 C 1138.2141,1104.5922 1155.6251,1091.5339 1155.6251,1091.5339 L 1130.3792,1085.8006 z "
     id="path22411"
     sodipodi:nodetypes="csscscc" />
  <path
     style="fill:none;fill-opacity:0.75;fill-rule:evenodd;stroke:#000000;stroke-width:1.5;stroke-linecap:butt;stroke-linejoin:miter;stroke-miterlimit:4;stroke-dasharray:none;stroke-opacity:1"
     d="M 1098.1687,1103.4628 C 1098.1687,1103.4628 1112.0976,1105.2039 1116.015,1103.8981"
     id="path28540" />
  <path
     id="path25913"
     d="M 1120.3964,1090.8306 L 1125.9946,1093.6297 C 1125.9946,1093.6297 1137.191,1088.0315 1137.191,1085.6989"
     style="fill:none;fill-opacity:0.75;fill-rule:evenodd;stroke:#000000;stroke-width:1.5;stroke-linecap:butt;stroke-linejoin:miter;stroke-miterlimit:4;stroke-dasharray:none;stroke-opacity:1" />
  <path
     style="fill:#483f2f;fill-opacity:1;fill-rule:evenodd;stroke:#000000;stroke-width:1.5;stroke-linecap:butt;stroke-linejoin:miter;stroke-miterlimit:4;stroke-dasharray:none;stroke-opacity:1"
     d="M 1139.9551,1095.0161 C 1139.9551,1095.0161 1129.5085,1101.11 1125.1558,1101.9805 C 1120.803,1102.8511 1112.7467,1100.8987 1109.4859,1106.3333 C 1106.8742,1110.686 1109.4859,1116.5249 1109.4859,1116.5249 C 1109.4859,1116.5249 1145.0622,1119.7886 1149.6353,1116.1442 C 1156.0757,1118.1567 1161.7188,1116.8475 1167.8127,1114.6712 C 1171.193,1113.464 1165.2011,1095.0162 1165.2011,1095.0162 L 1139.9551,1095.0161 z "
     id="path22409"
     sodipodi:nodetypes="cssccscc" />
  <path
     style="fill:none;fill-opacity:0.75;fill-rule:evenodd;stroke:#000000;stroke-width:1.5;stroke-linecap:butt;stroke-linejoin:miter;stroke-miterlimit:4;stroke-dasharray:none;stroke-opacity:1"
     d="M 1129.5372,1100.2302 L 1135.1354,1103.0293 C 1135.1354,1103.0293 1146.3318,1097.4311 1146.3318,1095.0985"
     id="path25038" />
  <path
     style="fill:#e5dec5;fill-opacity:1;fill-rule:evenodd;stroke:#000000;stroke-width:1.5;stroke-linecap:butt;stroke-linejoin:miter;stroke-miterlimit:4;stroke-dasharray:none;stroke-opacity:1"
     d="M 1099.1253,757.71259 C 1098.1042,820.66728 1119.3336,969.95377 1125.4893,990.8213 C 1130.0177,1006.1723 1131.448,1026.0402 1132.6791,1037.1205 C 1133.9103,1048.2008 1130.1779,1077.0187 1124.6187,1086.4281 C 1129.5242,1091.5285 1135.3828,1091.9218 1132.6027,1094.4563 C 1137.1166,1098.6488 1160.8628,1103.198 1168.0694,1107.6563 C 1180.0069,1115.0414 1178.7891,900.52534 1178.7891,872.20902 C 1178.7891,843.8927 1161.5531,749.09458 1161.5531,749.09458 C 1161.5531,749.09458 1099.3551,743.54292 1099.1253,757.71259 z "
     id="path22407"
     sodipodi:nodetypes="cssccsscs" />
  <path
     style="fill:#e5dec5;fill-opacity:1;fill-rule:evenodd;stroke:#000000;stroke-width:1.5;stroke-linecap:butt;stroke-linejoin:miter;stroke-miterlimit:4;stroke-dasharray:none;stroke-opacity:1"
     d="M 1106.1516,705.38895 C 1106.1516,705.38895 1090.7622,739.86099 1092.609,754.63473 C 1094.4557,769.40846 1136.9302,760.17488 1147.3949,770.02403 C 1157.8596,779.87319 1157.9659,871.35311 1170.7866,907.91221 C 1176.3921,923.89671 1190.9788,1028.1937 1192.9473,1016.2529 C 1199.7627,974.91181 1198.4874,883.28932 1180.0202,771.25518 C 1152.9351,645.06288 1186.7915,692.46193 1186.7915,692.46193 C 1186.7915,692.46193 1186.3681,673.08326 1180.0202,665.99233 C 1170.4351,655.28525 1167.0932,641.98501 1167.0932,641.98501 L 1152.3195,650.60302 L 1130.7744,662.2989 L 1106.1516,705.38895 z "
     id="path19779"
     sodipodi:nodetypes="cssssccscccc" />
  <path
     style="fill:#c0b488;fill-opacity:1;fill-rule:evenodd;stroke:#000000;stroke-width:1.5;stroke-linecap:butt;stroke-linejoin:miter;stroke-miterlimit:4;stroke-dasharray:none;stroke-opacity:1"
     d="M 1165.9904,636.36945 C 1165.9904,636.36945 1169.8808,647.1141 1169.197,647.90886 C 1166.1799,651.41563 1157.5869,658.0911 1156.0129,660.45218 C 1154.7818,662.2989 1143.7015,657.98989 1143.7015,657.98989 C 1143.7015,657.98989 1142.4703,665.99233 1143.7015,672.76362 C 1137.5457,678.30377 1105.3713,710.33723 1105.536,708.46681 C 1106.2917,699.88635 1118.3753,664.19619 1134.2996,654.74362 C 1137.5886,652.79129 1142.3948,645.75301 1165.9904,636.36945 z "
     id="path19777"
     sodipodi:nodetypes="cssccssc" />
  <path
     style="fill:#e5dec5;fill-opacity:1;fill-rule:evenodd;stroke:#000000;stroke-width:1.5;stroke-linecap:butt;stroke-linejoin:miter;stroke-miterlimit:4;stroke-dasharray:none;stroke-opacity:1"
     d="M 1155.9457,665.47214 C 1146.8356,669.75923 1135.1518,699.55496 1137.1896,706.73541 C 1139.8691,716.17681 1148.3626,723.04079 1153.0728,728.49109 C 1156.9552,732.98339 1172.4248,750.57358 1177.7836,754.86068 C 1177.1321,760.20843 1177.5679,772.54494 1179.7115,776.83203 L 1182.9268,792.4172 C 1182.9268,792.4172 1192.4861,789.80924 1193.689,788.47255 C 1198.3279,783.31763 1212.342,758.82443 1212.9098,750.78925 C 1213.581,741.29183 1198.6231,715.22729 1195.9437,710.40431 C 1193.2643,705.58133 1186.4912,675.1181 1177.3811,667.61568 C 1168.271,660.11327 1160.2327,663.86448 1155.9457,665.47214 z "
     id="path21529"
     sodipodi:nodetypes="csscccssssc" />
  <path
     style="fill:none;fill-opacity:0.75;fill-rule:evenodd;stroke:#000000;stroke-width:1.5;stroke-linecap:round;stroke-linejoin:miter;stroke-miterlimit:4;stroke-dasharray:none;stroke-opacity:1"
     d="M 1193.746,750.9376 C 1193.746,750.9376 1187.3042,755.48475 1177.831,754.34796"
     id="path21531" />
  <path
     style="fill:none;fill-opacity:0.75;fill-rule:evenodd;stroke:#000000;stroke-width:1.5;stroke-linecap:butt;stroke-linejoin:miter;stroke-miterlimit:4;stroke-dasharray:none;stroke-opacity:1"
     d="M 1132.7374,1093.9206 C 1135.4952,1086.1313 1144.6715,1057.3857 1128.4324,1004.0701"
     id="path23286"
     sodipodi:nodetypes="cc" />
  <path
     style="fill:none;fill-opacity:0.75;fill-rule:evenodd;stroke:#000000;stroke-width:1.5;stroke-linecap:round;stroke-linejoin:miter;stroke-miterlimit:4;stroke-dasharray:none;stroke-opacity:1"
     d="M 1129.5086,1105.0275 C 1129.5086,1105.0275 1122.5442,1108.0744 1116.015,1106.3332"
     id="path25915"
     sodipodi:nodetypes="cc" />
  <path
     sodipodi:nodetypes="cc"
     id="path26790"
     d="M 1120.3678,1095.4514 C 1120.3678,1095.4514 1112.0976,1098.9336 1105.5684,1097.1924"
     style="fill:none;fill-opacity:0.75;fill-rule:evenodd;stroke:#000000;stroke-width:1.5;stroke-linecap:round;stroke-linejoin:miter;stroke-miterlimit:4;stroke-dasharray:none;stroke-opacity:1" />
  <path
     style="fill:none;fill-opacity:0.75;fill-rule:evenodd;stroke:#000000;stroke-width:1.5;stroke-linecap:butt;stroke-linejoin:miter;stroke-miterlimit:4;stroke-dasharray:none;stroke-opacity:1"
     d="M 1168.2481,1110.686 C 1168.2481,1110.686 1155.625,1116.7799 1109.0506,1113.2977"
     id="path26792"
     sodipodi:nodetypes="cc" />
  <path
     style="fill:#ffffff;fill-opacity:1;fill-rule:evenodd;stroke:#000000;stroke-width:1.5;stroke-linecap:butt;stroke-linejoin:miter;stroke-miterlimit:4;stroke-dasharray:none;stroke-opacity:1"
     d="M 1085.2086,682.62051 C 1085.2086,682.62051 1083.6009,678.8693 1081.4574,677.26164 C 1079.3139,675.65398 1081.7756,672.80207 1080.2107,667.01865 C 1079.0313,662.65978 1076.4813,659.0056 1076.4813,659.0056 C 1076.4813,659.0056 1066.7392,643.46034 1062.8307,648.53067 C 1061.5891,650.14131 1049.4056,673.35415 1054.9568,677.95763 C 1062.999,684.62675 1063.4614,692.78605 1065.0509,696.26542 C 1065.8755,698.07028 1085.2086,684.22817 1085.2086,682.62051 z "
     id="path28544"
     sodipodi:nodetypes="csscsssc" />
  <path
     sodipodi:nodetypes="csssscc"
     id="path34742"
     d="M 1071.1401,664.82212 L 1058.5061,681.08334 C 1040.5481,704.19711 1020.5797,679.12455 1039.7394,654.72118 C 1043.7895,649.56252 1050.9267,655.13798 1047.3095,659.26439 C 1039.6249,668.03093 1037.3734,690.2966 1049.2762,675.80218 L 1067.9699,653.03816 C 1069.3883,651.20657 1072.1093,663.8689 1071.1401,664.82212 z "
     style="fill:#474747;fill-opacity:1;fill-rule:evenodd;stroke:#000000;stroke-width:1.49999833;stroke-linecap:butt;stroke-linejoin:miter;stroke-miterlimit:4;stroke-dasharray:none;stroke-opacity:1" />
  <path
     style="fill:#474747;fill-opacity:1;fill-rule:evenodd;stroke:#000000;stroke-width:1.49999833;stroke-linecap:butt;stroke-linejoin:miter;stroke-miterlimit:4;stroke-dasharray:none;stroke-opacity:1"
     d="M 1062.2557,660.0565 L 1071.1933,648.11122 C 1077.1714,649.9917 1080.4843,654.66279 1080.4843,654.66279 L 1069.7978,666.73651"
     id="path34744"
     sodipodi:nodetypes="cccc" />
  <path
     style="fill:#ffffff;fill-opacity:1;fill-rule:evenodd;stroke:#000000;stroke-width:1.5;stroke-linecap:butt;stroke-linejoin:miter;stroke-miterlimit:4;stroke-dasharray:none;stroke-opacity:1"
     d="M 1052.4492,669.62501 C 1052.4492,669.62501 1046.4062,671.74745 1050.7686,677.83633 C 1051.8775,679.38403 1059.3716,680.87578 1061.0932,679.82762 C 1063.6998,678.24067 1063.9658,672.56052 1060.7584,671.64529 C 1057.551,670.73007 1052.7889,669.52709 1052.4492,669.62501 z "
     id="path31171"
     sodipodi:nodetypes="csssc" />
  <path
     style="fill:#ffffff;fill-opacity:1;fill-rule:evenodd;stroke:#000000;stroke-width:1.5;stroke-linecap:butt;stroke-linejoin:miter;stroke-miterlimit:4;stroke-dasharray:none;stroke-opacity:1"
     d="M 1054.1527,660.85515 C 1054.1527,660.85515 1047.4062,661.83703 1050.8195,668.43899 C 1052.0016,670.72539 1059.8784,673.37075 1061.4898,672.90626 C 1064.2076,672.12288 1065.1168,666.34158 1061.9554,664.30927 C 1058.7939,662.27695 1054.5154,660.19868 1054.1527,660.85515 z "
     id="path30296"
     sodipodi:nodetypes="csssc" />
  <path
     style="fill:#ffffff;fill-opacity:1;fill-rule:evenodd;stroke:#000000;stroke-width:1.5;stroke-linecap:butt;stroke-linejoin:miter;stroke-miterlimit:4;stroke-dasharray:none;stroke-opacity:1"
     d="M 1059.0866,652.44197 C 1059.0866,652.44197 1050.2085,652.3266 1053.836,660.39453 C 1054.8612,662.67466 1061.8577,667.39257 1064.4144,667.09597 C 1066.5507,666.84816 1067.8745,661.86721 1065.9281,660.22057 C 1063.9817,658.57393 1059.5073,655.81621 1059.0866,652.44197 z "
     id="path29421"
     sodipodi:nodetypes="csssc" />
  <path
     style="fill:#ffffff;fill-opacity:1;fill-rule:evenodd;stroke:#000000;stroke-width:1.5;stroke-linecap:butt;stroke-linejoin:miter;stroke-miterlimit:4;stroke-dasharray:none;stroke-opacity:1"
     d="M 1064.7381,646.79511 C 1062.0222,646.04978 1055.6774,647.84299 1059.0358,654.57404 C 1060.8995,658.30948 1066.2409,661.83183 1067.7642,661.45153 C 1069.8135,660.9399 1071.5521,658.00617 1070.0095,656.02326 C 1068.467,654.04035 1066.5936,647.30431 1064.7381,646.79511 z "
     id="path29419"
     sodipodi:nodetypes="cssss" />
  <path
     style="fill:#ffffff;fill-opacity:1;fill-rule:evenodd;stroke:#000000;stroke-width:1.50000048;stroke-linecap:butt;stroke-linejoin:miter;stroke-miterlimit:4;stroke-dasharray:none;stroke-opacity:1"
     d="M 1077.5061,668.04573 C 1076.1715,661.04464 1072.5668,659.4452 1071.2286,657.974 C 1069.3541,655.91326 1066.0963,650.98221 1064.7358,650.83576 C 1062.1344,650.55575 1059.2686,653.12244 1059.8132,656.32819 C 1060.2248,658.75132 1066.128,664.93934 1066.5449,666.69789 C 1066.9623,668.45803 1065.7422,672.25161 1068.4312,674.90259"
     id="path32921"
     sodipodi:nodetypes="cssssc" />
</svg>
